<svg xmlns="http://www.w3.org/2000/svg" viewBox="0 0 154.46 46.72"><defs><style>.cls-1{fill:red;}.cls-2{font-size:20px;fill:#fff;font-family:Arial-BoldMT, Arial;font-weight:700;}</style></defs><g id="Layer_2" data-name="Layer 2"><g id="Concept_1" data-name="Concept 1"><g id="No"><path class="cls-1" d="M142.64,3.63l-3.62,1c3.42,1.88,6.76-1.83,9.49,2L143.27,11c.67.9,1.16,1.56,1.75,2.37l-1.79,1.76.07.63,3.08-.45.06.63-3.86,1.23,0,.54,11.77,1.05.13,1.79L139.14,29l.12,1,8.71.91v.84L144.57,33c2.69,5.68,6,1.33,9.23,2.94-1.09.7-1.82,1.09-2.51,1.63a13.51,13.51,0,0,0-1.58,1.62c-.22.23-.36.68-.58.85-3,2.25-5.81,5.44-9.3,5.52-14.78.36-29.55.88-44.33,1.12-7.28.12-14.57-.19-21.85-.4-15-.43-30-1-45-1.36-4.48-.1-8.95.5-13.43.52-1.06,0-2.12-1-3.23-2.24l3.63-1.29C12,40.56,8.78,43.68,6,40.09l5.22-4.32L9.42,33.36l2.1-1.76L11.43,31l-3.34.41L8,30.86l4-1.22L12,29l-11.87-1L0,26.23l15.29-8.4-.09-1L6.6,16v-1l2.92-1.22C8.7,10.93,8.7,10.93,1.2,11.1c.29-.62.47-1.4.81-1.67C4.45,7.5,7.08,6.09,9.34,3.71c2.52-2.63,5.18-2.44,7.88-2.52C25.84.93,34.45.62,43.07.52,55.17.37,67.28.4,79.39.32c1.33,0,2.66-.4,4-.3,6.17.45,12.33,1.32,18.49,1.49,10.92.29,21.85.18,32.77.23a7.3,7.3,0,0,0,1.68-.15C138.42,1.09,140.51.76,142.64,3.63Z"/><text class="cls-2" transform="translate(63.9 29.87)">No</text></g></g></g></svg>