<svg xmlns="http://www.w3.org/2000/svg" viewBox="0 0 203.51 46.72"><defs><style>.cls-1{fill:#d04b2a;}.cls-2{font-size:20px;fill:#fff;font-family:Arial-BoldMT, Arial;font-weight:700;}</style></defs><g id="Layer_2" data-name="Layer 2"><g id="Concept-2_Challenge"><g id="Start"><path class="cls-1" d="M187.93,3.63l-4.77,1c4.51,1.88,8.91-1.83,12.51,2L188.77,11l2.3,2.37-2.36,1.76.09.63,4.06-.45.08.63-5.09,1.23,0,.54,15.51,1.05.18,1.79L183.32,29l.16,1,11.47.91,0,.84L190.48,33c3.54,5.68,7.9,1.33,12.15,2.94-1.44.7-2.4,1.09-3.3,1.63a16.73,16.73,0,0,0-2.09,1.62c-.28.23-.47.68-.76.85-4,2.25-7.65,5.44-12.26,5.52-19.46.36-38.93.88-58.39,1.12-9.6.12-19.2-.19-28.79-.4-19.76-.43-39.52-1-59.28-1.36-5.9-.1-11.8.5-17.7.52-1.39,0-2.79-1-4.25-2.24l4.78-1.29c-4.74-1.36-9,1.76-12.73-1.83,2.11-1.33,4.41-2.78,6.88-4.32l-2.33-2.41,2.77-1.76L15.06,31l-4.4.41-.07-.53,5.21-1.22,0-.61-15.63-1L0,26.23l20.14-8.4-.11-1L8.7,16l0-1,3.85-1.22c-1.06-2.91-1.06-2.91-10.95-2.74.38-.62.62-1.4,1.06-1.67C5.86,7.5,9.32,6.09,12.31,3.71c3.32-2.63,6.82-2.44,10.38-2.52C34,.93,45.39.62,56.74.52,72.69.37,88.65.4,104.6.32c1.75,0,3.51-.4,5.25-.3,8.12.45,16.23,1.32,24.36,1.49,14.39.29,28.78.18,43.17.23a12.5,12.5,0,0,0,2.21-.15C182.38,1.09,185.13.76,187.93,3.63Z"/><text class="cls-2" transform="translate(80.39 29.87)">Start</text></g></g></g></svg>