<svg xmlns="http://www.w3.org/2000/svg" xmlns:xlink="http://www.w3.org/1999/xlink" viewBox="0 0 809.66 608.59"><defs><style>.cls-1{fill:none;}.cls-2{fill:#662a2a;}.cls-3{fill:#2d0101;}.cls-4{fill:#6b0808;}.cls-5{clip-path:url(#clip-path);}.cls-6{fill:#230202;}</style><clipPath id="clip-path" transform="translate(25.31 20.94)"><rect class="cls-1" width="754.04" height="428.04"/></clipPath></defs><g id="Layer_2" data-name="Layer 2"><g id="Text_Boxes" data-name="Text Boxes"><g id="Red"><rect class="cls-2" x="25.31" y="20.94" width="754.04" height="428.04"/><rect class="cls-3" x="43.31" y="38.94" width="718.04" height="327.33"/><rect class="cls-4" x="52.31" y="47.94" width="700.04" height="309.33"/><g id="Cracks"><g class="cls-5"><path class="cls-6" d="M52,42.84c2.6.28,5.15-.33,6.59-2.69a3.53,3.53,0,0,1,3.08-1.73,9.82,9.82,0,0,0,2.83-1.29c1.13-.56,2.25-1.64,3.37-1.62a20.89,20.89,0,0,1,5.29,1.22c1.51.42,3.41,1.77,4.4,1.27,2.22-1.13,3.54-.26,5,1,.61.5,1.13,1.11,2,2,0-1.52,0-2.57,0-3.62l-.4,0-.69,1.71c-1.18-2.11-2.26-3.58-4.64-2.3a3.46,3.46,0,0,1-2.28-.17c-2.7-.81-5.39-1.64-8-2.6a3.32,3.32,0,0,0-4.17,1.24c-1.17,1.8-2.81,1.6-4.47,1.84-.92.14-2.41.49-2.57,1-.88,3.1-3.18,3-5.57,2.85a7.56,7.56,0,0,0-1.88-.12,2.37,2.37,0,0,0-1.57.91c-.64,1.45-.64,3.46-1.66,4.43-2.22,2.07-3.38,5.32-6.73,6.22-.62.17-1,1.16-1.54,1.64-1.15,1-2.24,2.19-3.59,2.68-1.6.59-3.46.41-5.17.76-1,.21-2.05.42-2.25-.73a6.31,6.31,0,0,1,.47-3.31c.25-.6,1.21-.93,1.87-1.35A37,37,0,0,0,41,40.49C41.88,39.05,42.7,38,44.65,38A7,7,0,0,0,48,36.78a37.49,37.49,0,0,0,3.54-2.65,30.44,30.44,0,0,0,4.65-3.65c1.92-2.2,3.27-4.92,5.25-7.07a17.19,17.19,0,0,0,4.13-7.89c.82-3.4,2.15-6.48,5.14-8.77,1.79-1.36,3.06-3.39,5.84-3.42,1.11,1.33,1.75,3.65,4.38,3a17.37,17.37,0,0,1,2.82-1c.72-.19,1.65,0,2.16-.45A61.78,61.78,0,0,0,91.12.25C93.57-2.14,96-4.62,98.29-7.12a14.42,14.42,0,0,0,1.49-2.35c-.84.4-1.22,1.1-1.78,1.59Q91.9-2.49,85.7,2.8a4.21,4.21,0,0,1-1.7.69c-.89.22-2,.09-2.67.56-1.62,1.1-2,.24-2.6-1.07-.35-.81-1.19-2-1.75-2-2.11.1-4.5,0-6,1.91a9.9,9.9,0,0,1-4,3.17,2.24,2.24,0,0,0-1,1.25c-2.21,6.28-4.91,12.31-9.1,17.56a29,29,0,0,1-3.34,3.81c-1.67,1.46-3.68,2.53-5.32,4a8.64,8.64,0,0,1-6.12,2.52c-.46,0-1.14.05-1.37.34-1.32,1.72-2.52,3.52-3.78,5.28a36.88,36.88,0,0,1-2.27,3c-1.21,1.36-2.51,2.65-3.8,3.95a3.3,3.3,0,0,1-1.29.94c-4.28,1.06-6.86,3.52-7.1,8.13-.07,1.35-.88,2-2.37,2.23-1.66.22-3.56.51-4.8,1.48-2.75,2.14-5.71,4.36-7.56,7.21-2.71,4.2-6.92,5.55-11,7a6.72,6.72,0,0,0-4.66,4.7,7.81,7.81,0,0,1-8,5.67c-3.12,0-6.24.09-9.35.14,0,.26,0,.51,0,.76a5.2,5.2,0,0,0,.81.43c1.11-1.48,2.31-.74,3.57-.26a4,4,0,0,0,1.69.08c1.54-.13,3.09-.25,4.62-.48a16.63,16.63,0,0,0,4.83-1c2.61-1.29,3.9-3.76,4.67-6.52a1.76,1.76,0,0,1,1-1.1c2.68-.84,5.38-1.57,8.07-2.34a1.76,1.76,0,0,0,.75-.37c1.92-2.07,3.8-4.19,5.74-6.25,2.5-2.65,5.06-5,8.78-6.22,2.8-.91,4.13-.39,5.69,1.79s3.33,2,5-.1a23.75,23.75,0,0,1,3.33-3.54,6.22,6.22,0,0,1,2.41-.78c.77-.22,1.8-.14,2.3-.63,1.8-1.77,2.43-4.84,5.66-5,.05,0,.12-.07.16-.13,1.88-2.94,5-5,5.67-8.79C49.62,43.33,50.32,42.65,52,42.84Z" transform="translate(25.31 20.94)"/><path class="cls-6" d="M779.14,141.84c-1.67-.87-4.18-2.09-4.38-3.45-.85-5.76-.94-11.62-1.39-17.44a3.68,3.68,0,0,0-.88-2.3c-2.25-2.05-4.72-3.86-7-5.93-2.53-2.33-4.9-4.85-7.72-7.67a17.78,17.78,0,0,0-3-.6c-1.28-.09-2.59.29-3.87.22-3.4-.17-6.19-2.41-6.36-5.12s-.66-5.71-.18-8.41c.65-3.64-1.43-5.56-3.75-7.21-1.75-1.25-4.11-1.6-6.07-2.6-1-.52-2.6-1.64-2.54-2.38.43-5.63,1.44-11.21,1.74-16.84a11.93,11.93,0,0,0-1.89-6.74c-1.62-2.44-4.11-4.31-6.41-6.61-.1-1.66-.26-4-.38-6.38a8.26,8.26,0,0,0-6.82-8c-4.07-.83-8.16-1.53-12.25-2.29a4.24,4.24,0,0,0,2.51,2c2,.58,4.08,1,6.14,1.4,6.22,1.2,10.05,6.21,6.87,11.07-2.82,4.29-.11,5.06,1.78,7,.49.5,1,1,1.56,1.55-2.18,2.56-5.25,3.77-7.56,2-3.89-2.92-7.72-2-11.65-1.26-6.67,1.32-13.29,2.24-19.37-1.79a6.54,6.54,0,0,0-5.12-1c-3.13.44-6.18.1-8-3.45-2.6-5-6.61-9.44-6.15-15.7a6.48,6.48,0,0,0-1-3c-2.23-4.53-4.39-9.1-6.84-13.5-1.27-2.29-2.67-5.27-4.78-6.2-4.22-1.86-6.2-4.4-6.73-9-.4-3.42-1.48-7.53-3.79-9.75A11.82,11.82,0,0,0,633-10.22a4,4,0,0,1-2.93-.56c-3.52-2.57-6.85-5.38-10.37-7.94A28.28,28.28,0,0,0,615-20.94c4.42,4,8.21,7.51,12.17,10.85,1.93,1.62,3.87,3,7,1.95,4.17-1.37,9.2,2.35,9.84,6.71.29,2,.24,4,.59,5.95.82,4.7,2.25,8.88,7.43,10.85,1.43.54,2.29,2.87,3.18,4.51.7,1.29.64,3.21,1.61,4.11,4.22,3.9,4.57,9.13,5.78,14.38-3.58.37-6.85,1-10.1.91-1.6-.05-3.34-1.31-4.68-2.43-3.55-3-2.1-8.91-6.57-11.48-.28-.16-.25-.88-.33-1.34a17,17,0,0,0-6.58-11.3c-2.21-1.69-3.91-4-6-5.84a8.07,8.07,0,0,0-3.75-1.7c-3.48-.54-7-.81-10.58-1.19-.33-3.89-1.25-4.85-4.3-5,1.26,2.06,2.76,4.52,4.1,6.73a74.24,74.24,0,0,1,8.78.52c5.57,1,8.26,5.83,11.2,9.71,2.78,3.66,4.43,8.3,5.91,12.74.45,1.35-.33,3.07,1,4.64,2,2.39,3.61,5.19,5.51,7.73,1,1.29,2.14,3.29,3.33,3.37,3.8.27,7.83.45,11.41-.59s4.41.8,5.59,3,2.78,4.46,3.51,6.89c1.12,3.75,2.37,7.7,2.25,11.52-.15,4.86,2.29,8.41,7.3,8.77a6.51,6.51,0,0,1,3.73,1.65c4.08,3.91,9.11,5.28,14.45,6.41,3.74.79,8.86-.28,10,5.46a16.15,16.15,0,0,0,.66,3.47c.76,1.65,1.51,3.72,2.91,4.58,2.22,1.38,5,1.91,7.48,2.8-1.47-1.35-3.13-2.93-5.06-3.44-3.31-.88-4.39-2.93-4.26-6,.26-6.51-1.9-9-8.29-9.07-5.94,0-10.75-2.42-15.13-6.27a17.88,17.88,0,0,0-6.24-3.46c-2.1-.67-3-1.81-2.91-3.78.1-2.7.39-5.39.65-8.81,3.12.65,6.58.85,9.6,2.11,5.53,2.31,11,4.09,16.78,1.57,3.93-1.71,6.91-.52,10.52,1.11,2.89,1.31,6.73,1.36,10,.83s4.32-.59,4.25,2.75A117.51,117.51,0,0,1,727.51,78a7.22,7.22,0,0,0,5.15,7.3c6,1.35,7.29,3.07,7.72,9.32a27,27,0,0,0,1.67,8.76c1.82,4.2,5.85,4.64,10,4.93a16.47,16.47,0,0,1,7.32,2.68,72.53,72.53,0,0,1,9,7.11c1.22,1.08,2.9,2.79,2.77,4-.38,3.9.6,7.54,1,11.31.8,7.5,1.78,7.74,8.42,10.21a19.92,19.92,0,0,0,3.82.64C782.74,143.09,780.8,142.72,779.14,141.84Z" transform="translate(25.31 20.94)"/><path class="cls-6" d="M126.8,533.81a17.68,17.68,0,0,0,4.52-10.55c.26-4.4-1.06-5.66-5.43-5.69-3.12,0-6.38.1-9.29-.79-1.93-.58-3.56-2.66-4.95-4.38-2.25-2.78-4-5.95-6.31-8.69-2-2.41-2.61-5.95-6.51-6.93-3.25-.81-4.9-4.46-4.32-7.87s1.49-6.86,1.94-10.33c.57-4.38-.82-8.32-3-12.16s-3.6-8.41-6.11-12.13c-3.34-5-7.45-9.39-11.18-14.1-1.53-1.94-.77-5.05,1.21-5.46,3.51-.73,11.28,3,13.08,6.28a3.63,3.63,0,0,0,6,.92c4.54-4.15,6.89-4.33,12.34-1.25a56,56,0,0,0,5.61,2.41c-6.1-4.08-11.7-11.1-19.85-4.58-2.37-2.33-4.6-4.38-6.64-6.59a3.28,3.28,0,0,1-.86-2.6c1.39-4.37,3.07-8.65,4.53-13,1.23-3.68,2.14-7.46,3.44-11.11,1.7-4.74,3.66-9.39,5.67-14.5,2.62,1.56,4.71,2.47,6.4,3.88,2,1.67,2.94,1.56,4.25-.79,2.36-4.24,3.15-4.32,7.39-2.07a6.93,6.93,0,0,0,1,.3c-3.44-4.6-5.39-4.42-11.19,1.73-2.41-1.87-5.16-3.49-7.23-5.74-2.75-3-4.83-6.56-7.42-9.69-4.11-5-8.4-9.78-13-15.13H98.33c0-.21,0-.42,0-.63L67.77,360.3c1.36.53,2.32.94,3.31,1.27,2.7.92,6,1.14,8,2.87,3.17,2.79,5.46,6.58,8.15,9.93,3.24,4,6.65,7.92,9.66,12.11a5.9,5.9,0,0,1,.57,4.69c-2.84,8.13-6,16.17-9,24.23-1.93,5.14-3.87,10.27-5.83,15.45-4.26-.78-7.82-1.55-10.67,1.94-.69.84-3.23,1.37-3.9.81-3.54-2.94-7.68-1.88-11.54-2.09-7.14-.38-9.56-1.93-10.71-8.31,2.13-.4,4.33-.64,6.42-1.25,1.67-.49,4.43-1.22,4.6-2.21.77-4.34.78-8.82,1.06-13.25A19.56,19.56,0,0,0,56,412.18c-1.16,7.24-1.14,7.09-8.51,8-1.42.19-3.88,2.33-3.72,3.13a24.79,24.79,0,0,0,3.55,9.28c.92,1.32,3.93,1.27,6,1.63,1.36.24,2.86-.17,4.18.17,3.26.85,7.75-1,9.06,4.24,2.47-1.51,3.8-.46,5,1.5,2.79,4.38,5.37,9,8.74,12.9,4.31,5,6.7,10.73,9.14,16.68,2.78,6.8.88,13.55.6,20.26-.16,3.77-.16,5.48,3.12,7.82,3.5,2.5,6.73,5.19,8.78,9.33,1.71,3.44,4.63,6.29,7.46,10,.13,1.58-1.18,2.65-3.59,3.19a30.32,30.32,0,0,0-6.58,2.5,5.1,5.1,0,0,1-7.43-3.72c-.66-5.75-3.78-8.75-8-8.71-2.61,2.65-4.65,4.73-6.7,6.8a39.56,39.56,0,0,0,5.67-3.32c.77-.47,2.47-.88,2.66-.59,1.13,1.68,2.61,3.55,2.67,5.39a7.68,7.68,0,0,1-2.43,5.19c-2.08,1.88-4.77,3.09-7.2,4.59.16.27.33.54.49.82,3.22-1.59,6.43-3.21,9.67-4.75.77-.36,1.83-.87,2.49-.61,4,1.58,6.86,6.65,7,11.1a108.78,108.78,0,0,0,1.27,12.19c1.26,8.94,2.85,17.84,3.91,26.8.65,5.44.32,5.47-5,5.65-.82,0-1.63.26-2.46.3-3,.15-6.43,2.07-8.43-2.07-.17-.34-1.08-.47-1.64-.46-6.4.05-12.8.14-19.2.23,0,.51,0,1,0,1.53,2.44-.15,4.91-.16,7.32-.5,5.06-.7,10-2.57,14.53,2.22,1.48,1.55,5.36,2,7.67,1.32,5.81-1.66,9.64,2.28,14.24,4,.36.13.25,1.51.24,1.41l8.33-.64.36-.55-14.81-5.51c.78-2.69,1.64-4.39,1.55-6-.26-4.45-.83-8.88-1.43-13.3-1.41-10.47-2.9-20.93-4.37-31.38-.37-2.61,0-4.6,3.18-5.1a17.51,17.51,0,0,0,5-1.66c6.23-3.08,12.61-1.54,19-.82.16,0,.29.32.54.6-.89,2.24-1.47,4.76-2.8,6.79-2.67,4.08-2.8,4.37.47,8.17s6.31,7.45,9.42,11.13l-6.89,2.13c1.13,3.26,6,4.5,4.36,9.11l2.92-3.47-3.77-4.76,7.34-1.14Z" transform="translate(25.31 20.94)"/></g></g></g></g></g></svg>